<?xml version="1.0" encoding="UTF-8" standalone="no"?>
<svg
   id="Layer_1"
   data-name="Layer 1"
   viewBox="0 0 2311.8826 1872.1351"
   version="1.1"
   sodipodi:docname="logo.svg"
   width="2311.8826"
   height="1872.1351"
   xmlns:inkscape="http://www.inkscape.org/namespaces/inkscape"
   xmlns:sodipodi="http://sodipodi.sourceforge.net/DTD/sodipodi-0.dtd"
   xmlns="http://www.w3.org/2000/svg"
   xmlns:svg="http://www.w3.org/2000/svg">
  <sodipodi:namedview
     id="namedview28"
     pagecolor="#ffffff"
     bordercolor="#000000"
     borderopacity="0.25"
     inkscape:showpageshadow="2"
     inkscape:pageopacity="0.0"
     inkscape:pagecheckerboard="0"
     inkscape:deskcolor="#d1d1d1"
     showgrid="false" />
  <defs
     id="defs14">
    <style
       id="style2">.cls-1{fill:url(#linear-gradient);}.cls-2,.cls-3,.cls-5,.cls-6,.cls-7{fill-rule:evenodd;}.cls-2{fill:url(#linear-gradient-2);}.cls-3{fill:#020c14;}.cls-4{fill:#b3b3b3;}.cls-5{fill:#65251e;}.cls-6{fill:#020b13;stroke:#000;}.cls-7{fill:#181818;}.cls-8{fill:#fff;}.cls-9{fill:#acaad1;}.cls-10{fill:#7572b2;}</style>
    <linearGradient
       id="linear-gradient"
       x1="6.1900001"
       y1="16.879999"
       x2="6.6700001"
       y2="55.279999"
       gradientTransform="matrix(0.96237607,0,0,-1.0019529,-317.65198,20.311527)"
       gradientUnits="userSpaceOnUse">
      <stop
         offset="0"
         stop-color="#c35781"
         id="stop4" />
      <stop
         offset="1"
         stop-color="#25458b"
         id="stop6" />
    </linearGradient>
    <linearGradient
       id="linear-gradient-2"
       x1="24.42"
       y1="55.25"
       x2="22.68"
       y2="42.470001"
       gradientTransform="matrix(1.0024751,0,0,-1.0329411,-338.313,44.781902)"
       gradientUnits="userSpaceOnUse">
      <stop
         offset="0"
         stop-color="#dca11f"
         id="stop9" />
      <stop
         offset="1"
         stop-color="#eab3b3"
         id="stop11" />
    </linearGradient>
  </defs>
  <ellipse
     id="path4164"
     class="cls-1"
     cx="-311.52686"
     cy="-9.3028946"
     rx="20.400368"
     ry="21.278587"
     style="fill:url(#linear-gradient);stroke-width:1.01759" />
  <path
     id="path3342"
     class="cls-2"
     d="m -319.40632,-14.622541 c -3.31819,-0.289223 -9.52351,4.431317 -12.31039,8.9762589 a 20.049502,20.658822 0 0 0 19.76881,17.9938341 19.768809,20.369599 0 0 0 12.48082,-4.5759301 c -0.38095,-3.098823 -1.70421,-5.939411 -5.01238,-9.885245 -4.08007,-4.885813 -10.32549,-11.7135529 -14.92686,-12.5089179 z"
     style="fill:url(#linear-gradient-2);stroke-width:1.01759" />
  <path
     id="path3481"
     class="cls-3"
     d="m -312.7599,-22.452235 a 16.460641,16.960893 0 0 0 -2.00495,0.165271 c -5.17278,0.785035 -8.49097,2.892235 -12.73144,8.170564 a 46.194052,47.597926 0 0 0 -4.34072,6.7141179 19.1172,19.698187 0 0 0 0.23057,2.189835 c 3.00743,-4.255718 11.26782,-10.5359999 13.13243,-7.7677169 2.13527,3.1711289 -4.0099,7.5817869 -3.18787,8.7799979 0.82203,1.198213 4.76175,-0.754046 8.36064,-1.03294 4.0099,-0.299553 6.1552,0.981294 8.84183,3.098823 a 15.398017,15.865975 0 0 1 -1.37339,-3.212446 c -0.54134,-1.96259 0.8922,-3.780565 1.42351,-4.8548239 0.84208,-1.704353 1.56386,-4.080117 2.81696,-5.360964 2.20544,-2.241482 6.01485,-3.398377 9.46336,-4.5656 a 28.891333,29.769364 0 0 1 3.1177,-0.53713 7.1977713,7.4165173 0 0 0 -3.36832,-0.826352 c -5.60383,-0.09296 -9.02227,0.785035 -11.27784,0.5268 -2.90718,-0.299553 -5.58379,-1.528753 -9.10247,-1.487436 z"
     style="stroke-width:1.01759" />
  <ellipse
     id="path3485"
     class="cls-4"
     cx="-47.466286"
     cy="-309.12482"
     rx="1.506387"
     ry="1.4854442"
     transform="matrix(0.19171247,-0.98145113,0.97916465,0.20306794,0,0)"
     style="stroke-width:1.01762" />
  <ellipse
     id="ellipse3487"
     cx="-47.50032"
     cy="-308.90289"
     rx="1.3722566"
     ry="1.3449293"
     transform="matrix(0.19171247,-0.98145113,0.97916465,0.20306794,0,0)"
     style="stroke-width:1.01762" />
  <path
     id="path4068"
     class="cls-5"
     d="m -306.61473,-15.479882 a 14.616087,15.060282 0 0 1 4.53119,-1.869624 c 2.69665,-0.7024 6.01485,-2.375764 8.74158,-3.026518 -4.61139,0.578448 -10.17512,1.77666 -13.27277,4.896142 z"
     style="stroke-width:1.01759" />
  <path
     id="path4152"
     class="cls-6"
     d="m -326.09282,-2.3615301 c -0.95236,0 -3.1979,1.032942 -4.40087,1.59072905 a 20.119676,20.731129 0 0 0 2.20545,4.26604795 c 0.67165,-2.92322395 3.00742,-4.947788 2.55631,-5.712165 -0.0301,-0.144612 -0.17042,-0.144612 -0.36089,-0.144612 z"
     style="stroke-width:1.01759" />
  <path
     id="path4179"
     class="cls-7"
     d="m -300.82043,-17.731694 c 2.40594,-0.69207 6.56622,-2.375764 9.60371,-2.768282 a 8.8819294,9.1518583 0 0 0 -2.12524,0.123952 32.21955,33.198728 0 0 0 -7.47847,2.64433 z"
     style="stroke-width:1.01759" />
  <ellipse
     id="path4181"
     class="cls-8"
     cx="-316.99036"
     cy="-25.272163"
     style="stroke-width:1.01759"
     rx="0.28069302"
     ry="0.28922352" />
  <ellipse
     id="circle4187"
     class="cls-9"
     cx="-315.36633"
     cy="-26.315435"
     style="stroke-width:1.01759"
     rx="0.20049503"
     ry="0.20658824" />
  <ellipse
     id="circle4213"
     class="cls-10"
     cx="-303.12613"
     cy="-23.474846"
     style="stroke-width:1.01759"
     rx="0.20049503"
     ry="0.20658824"
     inkscape:export-filename="safari-pinned-tab.svg"
     inkscape:export-xdpi="333.30255"
     inkscape:export-ydpi="333.30255" />
</svg>
